<svg xmlns="http://www.w3.org/2000/svg"><symbol id="bag-white-icon" viewBox="0 0 72 72"><path fill="#fff" d="M63.7 67H13L7 30.1h62.7l-6 36.9z"/><path fill="none" stroke="#fff" stroke-miterlimit="10" stroke-width="4.49" d="M17.7 40.9c.1-.2 3.7-35.1 21-34.8S59 40.9 59 40.9z"/></symbol><symbol id="bag-icon" viewBox="0 0 66.1 66.1"><path fill="#ba2424" d="M58.4 64H7.7l-6-36.9h62.7l-6 36.9z"/><path fill="none" stroke="#ba2424" stroke-miterlimit="10" stroke-width="4.49" d="M12.4 38c.1-.3 3.6-35.1 21-34.9S53.7 38 53.7 38z"/></symbol><symbol id="fb-icon" viewBox="0 0 72 72"><path fill="#ffedde" d="M69 36a33 33 0 1 0-35.1 33V50.4h-7.2v-9h7.2v-7.2a10.8 10.8 0 0 1 10.8-10.8h9v9h-5.5c-1.9 0-3.6-.2-3.6 1.8v7.2h9.1l-1.8 9h-7.2v17.5A33 33 0 0 0 69 36z"/></symbol><symbol id="ig-icon" viewBox="0 0 72 72"><path fill="#ffedde" d="M36 30.2a5.8 5.8 0 0 0 0 11.6 5.8 5.8 0 0 0 0-11.6z"/><path fill="#ffedde" d="M42.9 21H29.1a8.1 8.1 0 0 0-8.1 8.1v13.8a8.1 8.1 0 0 0 8.1 8.1h13.8a8.1 8.1 0 0 0 8.1-8.1V29.1a8.1 8.1 0 0 0-8.1-8.1zm2.4 15a9.3 9.3 0 1 1-9.3-9.3 9.3 9.3 0 0 1 9.3 9.3zm.7-8.7a1.3 1.3 0 0 1-1.3-1.2 1.3 1.3 0 0 1 1.3-1.3 1.3 1.3 0 0 1 1.2 1.3 1.3 1.3 0 0 1-1.2 1.2z"/><path fill="#ffedde" d="M36 3a33 33 0 1 0 33 33A33 33 0 0 0 36 3zm18.5 39.9a11.6 11.6 0 0 1-11.6 11.6H29.1a11.6 11.6 0 0 1-11.6-11.6V29.1a11.6 11.6 0 0 1 11.6-11.6h13.8a11.6 11.6 0 0 1 11.6 11.6z"/></symbol><symbol id="sc-icon" viewBox="0 0 72 72"><path fill="#ffedde" d="M36 3a33 33 0 1 0 33 33A33 33 0 0 0 36 3zm19.6 43.5c-.1.5-.6.8-1.3 1.1a13.6 13.6 0 0 1-3.9 1c-.1.3-.1.6-.2.9s-.1.6-.2.9a1.1 1.1 0 0 1-1 .8h-1a7.6 7.6 0 0 0-2.1-.3l-1.4.2a6.2 6.2 0 0 0-2.8 1.4 8.9 8.9 0 0 1-5.5 2.1h-.4a8.9 8.9 0 0 1-5.5-2.1 6.2 6.2 0 0 0-2.8-1.5l-1.4-.2a7.6 7.6 0 0 0-2.1.3h-.9a1.1 1.1 0 0 1-1.1-.8 2.9 2.9 0 0 1-.2-.9c-.1-.3-.1-.6-.2-.9a13.6 13.6 0 0 1-3.9-1c-.7-.3-1.2-.7-1.3-1.1a.6.6 0 0 1-.1-.4.9.9 0 0 1 .7-1 8.3 8.3 0 0 0 3.4-1.3 12.1 12.1 0 0 0 2.4-2.1 11 11 0 0 0 2-3.1 1.7 1.7 0 0 0 .2-1.3c-.3-.7-1.4-1.1-2.1-1.3l-.6-.2a5.3 5.3 0 0 1-1.5-.8 1.9 1.9 0 0 1-.6-1.4 2 2 0 0 1 .9-1.1 2.4 2.4 0 0 1 1.2-.3h.6a6.1 6.1 0 0 0 1.8.5h.6v-.9c-.2-2.7-.4-6 .5-8a10.5 10.5 0 0 1 2.4-3.4 8.1 8.1 0 0 1 2.9-1.9 9.9 9.9 0 0 1 4.5-1h.8a10.2 10.2 0 0 1 4.5 1 10.2 10.2 0 0 1 5.3 5.3c.9 2 .6 5.3.5 8a2.2 2.2 0 0 1-.1.8h.6a4.3 4.3 0 0 0 1.6-.5l.8-.2.9.2c.8.3 1.3.8 1.3 1.5a2.2 2.2 0 0 1-.5 1.1 5.1 5.1 0 0 1-1.6.9l-.6.2c-.7.2-1.8.6-2.1 1.2s-.1.8.2 1.4c.1.3 2.5 5.7 7.8 6.5a.9.9 0 0 1 .7 1 .6.6 0 0 1-.1.7z"/></symbol><symbol id="star-icon" viewBox="0 0 72 72"><path fill="#e0b179" d="M36 7.9l9.2 17.6a3 3 0 0 0 1.2 1.3L63.3 36l-16.9 9.2a3.7 3.7 0 0 0-1.2 1.3L36 64.1l-9.2-17.6a3.7 3.7 0 0 0-1.2-1.3L8.7 36l16.9-9.2a3 3 0 0 0 1.2-1.3L36 7.9m0-6.5L24.1 24.1 2.4 36l21.7 11.9L36 70.6l11.9-22.7L69.6 36 47.9 24.1 36 1.4z"/></symbol><symbol id="twt-icon" viewBox="0 0 72 72"><path fill="#ffedde" d="M36 3a33 33 0 1 0 33 33A33 33 0 0 0 36 3zm17 24.3a3.7 3.7 0 0 1 .1 1.1c0 11.6-8.9 25-25.1 25a24.6 24.6 0 0 1-13.4-3.9h2.1a18.2 18.2 0 0 0 10.9-3.7 9 9 0 0 1-8.3-6.2l1.7.2a8.5 8.5 0 0 0 2.3-.3 8.9 8.9 0 0 1-7-8.6 8.7 8.7 0 0 0 3.9 1 8.8 8.8 0 0 1-2.7-11.7 25.3 25.3 0 0 0 18.2 9.2 6.8 6.8 0 0 1-.2-2 8.8 8.8 0 0 1 15.2-6 16.3 16.3 0 0 0 5.5-2.2 8.5 8.5 0 0 1-3.8 4.9 17.8 17.8 0 0 0 5-1.4 16 16 0 0 1-4.4 4.6z"/></symbol></svg>