<svg xmlns="http://www.w3.org/2000/svg"><symbol id="bag1-icon" viewBox="0 0 72 72"><path fill="#ba2424" d="M61.4 67H10.6l-6-36.9h62.8l-6 36.9z"/><path fill="none" stroke="#ba2424" stroke-miterlimit="10" stroke-width="4.49" d="M15.4 40.9c.1-.2 3.6-35.1 21-34.8s20.2 34.8 20.2 34.8z"/><path fill="#fff" d="M43 57.1v2.7H30.5v-2.7h4.9V43.5a3.8 3.8 0 0 1-.9.9l-1.5.8-1.7.7-1.5.3v-2.9a4.1 4.1 0 0 0 1.7-.5 8.1 8.1 0 0 0 1.8-1l1.4-1.1c.4-.3.7-.6.7-.7h3.2v17.1z"/></symbol><symbol id="bag-icon" viewBox="0 0 66.1 66.1"><path fill="#ba2424" d="M58.4 64H7.7l-6-36.9h62.7l-6 36.9z"/><path fill="none" stroke="#ba2424" stroke-miterlimit="10" stroke-width="4.49" d="M12.4 38c.1-.3 3.6-35.1 21-34.9S53.7 38 53.7 38z"/></symbol><symbol id="star-icon" viewBox="0 0 72 72"><path fill="#e0b179" d="M36 7.9l9.2 17.6a3 3 0 0 0 1.2 1.3L63.3 36l-16.9 9.2a3.7 3.7 0 0 0-1.2 1.3L36 64.1l-9.2-17.6a3.7 3.7 0 0 0-1.2-1.3L8.7 36l16.9-9.2a3 3 0 0 0 1.2-1.3L36 7.9m0-6.5L24.1 24.1 2.4 36l21.7 11.9L36 70.6l11.9-22.7L69.6 36 47.9 24.1 36 1.4z"/></symbol></svg>