<svg xmlns="http://www.w3.org/2000/svg" width="38.4" height="38.4" viewBox="0 0 32 32"><path d="M3.7 19.1a3.2 3.2 0 0 1-1.4-.3 2.5 2.5 0 0 1-1-.8 2.6 2.6 0 0 1-.7-1.1 3.1 3.1 0 0 1-.3-1.3 2.8 2.8 0 0 1 .3-1.3 4.7 4.7 0 0 1 .7-1.2l1-.7a3.5 3.5 0 0 1 1.4-.3 2.8 2.8 0 0 1 1.3.3l1.1.8a4.1 4.1 0 0 1 .7 1.1 5.9 5.9 0 0 1 .2 1.3 2.8 2.8 0 0 1-.3 1.3 2.9 2.9 0 0 1-.7 1.2l-1 .7a3.1 3.1 0 0 1-1.3.3zm-2.2-3.5a2.8 2.8 0 0 0 .1.9 2.6 2.6 0 0 0 .5.9 1.3 1.3 0 0 0 .7.5c.2.2.5.2.9.2a1.5 1.5 0 0 0 .9-.2 1.3 1.3 0 0 0 .7-.6 2 2 0 0 0 .4-.8 2.9 2.9 0 0 0 .2-.9 4.4 4.4 0 0 0-.2-1l-.4-.8-.7-.5-.9-.2-1 .2a1.9 1.9 0 0 0-.7.6l-.4.8a2.8 2.8 0 0 0-.1.9zM14.3 14h1.1l-2.2 5.1h-.9l-.9-2.4-1 2.4h-.8L7.4 14h1l1.7 4 .7-1.9-.9-2.1h.9l.6 1.6.6-1.6h.8l-.8 2.1.7 1.9zm6.4 5.1h-1.1v-2.9a2.2 2.2 0 0 0-.2-1 .8.8 0 0 0-.7-.4h-.5l-.4.3-.4.3-.2.5V19h-1.1v-5h1v1a1.6 1.6 0 0 1 .8-.8l1.2-.3h.8c.2.1.3.3.5.5a1.4 1.4 0 0 1 .2.7c0 .2.1.5.1.8zm3.8 0v-7h1.1v7zm5.3-.3l-.5.2H28l-.4-.2-.3-.4a4.3 4.3 0 0 1-.1-.5v-3.1h-.6V14h.6v-1.7h1.1V14h1.1v.8h-1.1v2.8c0 .2.1.4.2.4l.4.2h.7zm.7.3v-1.3h.9v1.3z"/></svg>