<svg xmlns="http://www.w3.org/2000/svg" width="86.4" height="86.4" viewBox="0 0 64 64"><path d="M7.3 38.2a6 6 0 0 1-2.7-.6A6.5 6.5 0 0 1 2.5 36a6.1 6.1 0 0 1-1.3-2.2 6 6 0 0 1-.5-2.6 8.6 8.6 0 0 1 .5-2.7 6.4 6.4 0 0 1 1.4-2.2 6.5 6.5 0 0 1 2.1-1.6 7.6 7.6 0 0 1 2.7-.5 6 6 0 0 1 2.7.6 6.5 6.5 0 0 1 2.1 1.6 9.8 9.8 0 0 1 1.3 2.2 8 8 0 0 1 .5 2.6 8.6 8.6 0 0 1-.5 2.7 6.4 6.4 0 0 1-1.4 2.2 6.5 6.5 0 0 1-2.1 1.6 7.6 7.6 0 0 1-2.7.5zm-4.4-7a6.3 6.3 0 0 0 .3 1.9 5.1 5.1 0 0 0 .9 1.6 3.6 3.6 0 0 0 1.4 1.1 4.1 4.1 0 0 0 1.8.5 3.8 3.8 0 0 0 1.9-.5l1.4-1.1a5.3 5.3 0 0 0 .8-1.7 5.7 5.7 0 0 0 .3-1.8 5.8 5.8 0 0 0-.3-1.9 5.1 5.1 0 0 0-.9-1.6 3.1 3.1 0 0 0-1.4-1.1 3.4 3.4 0 0 0-1.8-.4 3.4 3.4 0 0 0-1.8.4 5.3 5.3 0 0 0-1.4 1.1 4.6 4.6 0 0 0-.9 1.7 5.7 5.7 0 0 0-.3 1.8zm25.8-3.3h2.1l-4.3 10.2h-1.8l-1.9-4.7-1.9 4.7h-1.8l-4.3-10.2h2.1l3.2 8.2 1.5-3.8-1.7-4.4h1.7l1.2 3.2 1.1-3.2h1.8l-1.8 4.4 1.5 3.8zm12.6 10.2h-2.1v-5.7a3.6 3.6 0 0 0-.5-2.1 1.5 1.5 0 0 0-1.3-.6h-1l-.8.5a3 3 0 0 0-.8.8 3.1 3.1 0 0 0-.5 1v6h-2.1V27.9h1.9V30a4.6 4.6 0 0 1 1.7-1.7 5.4 5.4 0 0 1 2.5-.6 3.3 3.3 0 0 1 1.5.4 2 2 0 0 1 .9.9 5 5 0 0 1 .5 1.3 8.1 8.1 0 0 1 .1 1.6zm7.6 0V24.3h2.2v13.8zm10.7-.5l-1.1.4a4 4 0 0 1-1.5.3l-1-.2c-.3 0-.5-.2-.8-.4a1.3 1.3 0 0 1-.5-.7 3 3 0 0 1-.2-1v-6.4h-1.4v-1.7h1.4v-3.3h2.1v3.3h2.3v1.7h-2.3v5.7a2 2 0 0 0 .4.8l.7.2h.9l.6-.3zm1.4.5v-2.5h1.8v2.5z"/></svg>