<svg xmlns="http://www.w3.org/2000/svg" width="3.6in" height="3.6in" viewBox="0 0 256 256"><path d="M29.3 152.9a23.8 23.8 0 0 1-10.8-2.4 26.5 26.5 0 0 1-8.4-6.3 27.6 27.6 0 0 1-5.5-9 31.3 31.3 0 0 1-1.9-10.4 27.5 27.5 0 0 1 2.1-10.6 29.4 29.4 0 0 1 5.5-9 26.3 26.3 0 0 1 8.5-6.2 23.5 23.5 0 0 1 10.6-2.3 24.5 24.5 0 0 1 10.9 2.4 27.9 27.9 0 0 1 8.3 6.5 29.2 29.2 0 0 1 5.4 9 28.4 28.4 0 0 1 1.9 10.3 27.4 27.4 0 0 1-2 10.6 26.4 26.4 0 0 1-5.6 8.9 27 27 0 0 1-8.4 6.2 25.2 25.2 0 0 1-10.6 2.3zm-17.7-28.1a24.8 24.8 0 0 0 1.3 7.6 21.4 21.4 0 0 0 3.5 6.5 18.5 18.5 0 0 0 5.6 4.4 15.2 15.2 0 0 0 7.4 1.7 15.8 15.8 0 0 0 7.4-1.7 17.9 17.9 0 0 0 5.5-4.7 21.4 21.4 0 0 0 3.5-6.5 25.8 25.8 0 0 0 1.1-7.3 23.7 23.7 0 0 0-1.2-7.6 18.3 18.3 0 0 0-3.6-6.4 17 17 0 0 0-5.5-4.5 15.9 15.9 0 0 0-7.2-1.7 15.4 15.4 0 0 0-7.5 1.8 18 18 0 0 0-5.6 4.6 21.9 21.9 0 0 0-3.5 6.4 23.4 23.4 0 0 0-1.2 7.4zm103.2-13.1h8.2l-17.2 40.8h-7.1l-7.6-19-7.5 19h-7.1l-17.3-40.8h8.2l13.2 32.5 5.9-15.1-7.1-17.3h7.1l4.6 12.8 4.6-12.8h7.1l-7.1 17.3 6 15.1zm50.5 40.8h-8.6v-22.9q0-5.7-1.8-8.4a6.2 6.2 0 0 0-5.4-2.6 12.7 12.7 0 0 0-3.8.7 17.5 17.5 0 0 0-3.5 2 14.2 14.2 0 0 0-2.9 3.1 12.5 12.5 0 0 0-2 3.8v24.3h-8.6v-40.8h7.8v8.2a15.8 15.8 0 0 1 6.8-6.5 20.6 20.6 0 0 1 9.8-2.4 12.3 12.3 0 0 1 6.1 1.3 10.6 10.6 0 0 1 3.7 3.6 17.5 17.5 0 0 1 1.9 5.3 43.7 43.7 0 0 1 .5 6.4zm30.4 0V97.1h8.8v55.4zm42.9-2.1l-4.5 1.8a21.1 21.1 0 0 1-6.2.9 11.7 11.7 0 0 1-3.8-.5 10.7 10.7 0 0 1-3.2-1.6 9.3 9.3 0 0 1-2.2-2.9 11.1 11.1 0 0 1-.7-4.3v-25.5h-5.4v-6.6h5.4V98.2h8.6v13.5h8.9v6.6h-8.9v22.8a4.3 4.3 0 0 0 1.3 3.2 4.9 4.9 0 0 0 3 1 10.4 10.4 0 0 0 3.5-.7l2.4-1zm5.5 2.1v-10h7.1v10z"/></svg>