<svg id="Layer_1" data-name="Layer 1" xmlns="http://www.w3.org/2000/svg" width="0.2in" height="0.2in" viewBox="0 0 16 16"><title>logo-16</title><path d="M8,15.8a7.3,7.3,0,0,1-3-.6,10.2,10.2,0,0,1-2.3-1.8,7.7,7.7,0,0,1-1.4-2.5,7.3,7.3,0,0,1,0-5.8A8.7,8.7,0,0,1,2.8,2.6,8,8,0,0,1,5.1.8,7.2,7.2,0,0,1,8,.2a6,6,0,0,1,3,.7,6.6,6.6,0,0,1,2.3,1.8,6.8,6.8,0,0,1,1.4,2.5A6.9,6.9,0,0,1,15.2,8a7.6,7.6,0,0,1-.5,3,12.8,12.8,0,0,1-1.5,2.5,7.6,7.6,0,0,1-2.3,1.7A7.2,7.2,0,0,1,8,15.8ZM2.7,8a6.2,6.2,0,0,0,.4,2.3,4.5,4.5,0,0,0,1.1,1.9,5.4,5.4,0,0,0,1.6,1.4,5.4,5.4,0,0,0,2.2.5,4,4,0,0,0,2.2-.6,4.6,4.6,0,0,0,1.7-1.4,5.7,5.7,0,0,0,1-1.9A5.7,5.7,0,0,0,13.3,8a9.3,9.3,0,0,0-.4-2.3,7.2,7.2,0,0,0-1.1-1.9,5.5,5.5,0,0,0-1.7-1.3A3.6,3.6,0,0,0,8,2a5.1,5.1,0,0,0-2.2.5A4.6,4.6,0,0,0,4.1,3.9a5.7,5.7,0,0,0-1,1.9A5.7,5.7,0,0,0,2.7,8Z"/><path d="M5,11.1V5H6v6.1Z"/><path d="M9.8,10.9l-.5.2H8.1l-.3-.2c-.1,0-.2-.2-.2-.3a.7.7,0,0,1-.1-.5V7.3H6.9V6.6h.6V5.1h.9V6.6h1v.7h-1V9.8a.5.5,0,0,0,.2.4h1Z"/><path d="M10.4,11.1V10h.8v1.1Z"/></svg>